<mxfile host="app.diagrams.net" modified="2022-04-12T09:24:20.058Z" agent="5.0 (Windows NT 10.0; Win64; x64) AppleWebKit/537.36 (KHTML, like Gecko) Chrome/100.0.4896.75 Safari/537.36" etag="8VMUKPbeSk3syX7X7HFo" version="16.6.5" type="github">
  <diagram id="rpGUyRY0c6zzdN_JAQHF" name="Page-1">
    <mxGraphModel dx="782" dy="468" grid="1" gridSize="10" guides="1" tooltips="1" connect="1" arrows="1" fold="1" page="1" pageScale="1" pageWidth="827" pageHeight="1169" math="0" shadow="0">
      <root>
        <mxCell id="0" />
        <mxCell id="1" parent="0" />
        <mxCell id="3JQ_DlPpZyVaK5QD3R42-10" style="edgeStyle=orthogonalEdgeStyle;rounded=0;orthogonalLoop=1;jettySize=auto;html=1;" parent="1" source="3JQ_DlPpZyVaK5QD3R42-1" edge="1">
          <mxGeometry relative="1" as="geometry">
            <mxPoint x="191" y="725" as="targetPoint" />
          </mxGeometry>
        </mxCell>
        <mxCell id="3JQ_DlPpZyVaK5QD3R42-1" value="接收资源订单，计算计费信息，等待资源开通" style="rounded=0;whiteSpace=wrap;html=1;" parent="1" vertex="1">
          <mxGeometry x="131" y="615" width="120" height="60" as="geometry" />
        </mxCell>
        <mxCell id="3JQ_DlPpZyVaK5QD3R42-9" style="edgeStyle=orthogonalEdgeStyle;rounded=0;orthogonalLoop=1;jettySize=auto;html=1;entryX=0.5;entryY=0;entryDx=0;entryDy=0;" parent="1" source="3JQ_DlPpZyVaK5QD3R42-2" target="3JQ_DlPpZyVaK5QD3R42-1" edge="1">
          <mxGeometry relative="1" as="geometry" />
        </mxCell>
        <mxCell id="3JQ_DlPpZyVaK5QD3R42-2" value="提交资源订购订单&lt;br&gt;（包含CRM、服开等渠道提交订单）" style="rounded=0;whiteSpace=wrap;html=1;" parent="1" vertex="1">
          <mxGeometry x="131" y="499" width="120" height="60" as="geometry" />
        </mxCell>
        <mxCell id="3JQ_DlPpZyVaK5QD3R42-3" value="" style="endArrow=none;dashed=1;html=1;rounded=0;" parent="1" edge="1">
          <mxGeometry width="50" height="50" relative="1" as="geometry">
            <mxPoint x="294" y="974" as="sourcePoint" />
            <mxPoint x="294" y="460" as="targetPoint" />
          </mxGeometry>
        </mxCell>
        <mxCell id="3JQ_DlPpZyVaK5QD3R42-4" value="" style="endArrow=none;dashed=1;html=1;rounded=0;" parent="1" edge="1">
          <mxGeometry width="50" height="50" relative="1" as="geometry">
            <mxPoint x="534" y="974" as="sourcePoint" />
            <mxPoint x="534" y="460" as="targetPoint" />
          </mxGeometry>
        </mxCell>
        <mxCell id="3JQ_DlPpZyVaK5QD3R42-5" value="" style="endArrow=none;dashed=1;html=1;rounded=0;" parent="1" edge="1">
          <mxGeometry width="50" height="50" relative="1" as="geometry">
            <mxPoint x="704" y="965" as="sourcePoint" />
            <mxPoint x="704" y="460" as="targetPoint" />
          </mxGeometry>
        </mxCell>
        <mxCell id="3JQ_DlPpZyVaK5QD3R42-6" value="天翼云BCP系统" style="text;html=1;strokeColor=#d79b00;fillColor=#ffe6cc;align=center;verticalAlign=middle;whiteSpace=wrap;rounded=0;" parent="1" vertex="1">
          <mxGeometry x="161" y="410" width="60" height="30" as="geometry" />
        </mxCell>
        <mxCell id="3JQ_DlPpZyVaK5QD3R42-7" value="多云管理平台" style="text;html=1;strokeColor=#6c8ebf;fillColor=#dae8fc;align=center;verticalAlign=middle;whiteSpace=wrap;rounded=0;" parent="1" vertex="1">
          <mxGeometry x="385" y="410" width="60" height="30" as="geometry" />
        </mxCell>
        <mxCell id="3JQ_DlPpZyVaK5QD3R42-8" value="ZSTACK" style="text;html=1;strokeColor=#82b366;fillColor=#d5e8d4;align=center;verticalAlign=middle;whiteSpace=wrap;rounded=0;" parent="1" vertex="1">
          <mxGeometry x="591" y="410" width="60" height="30" as="geometry" />
        </mxCell>
        <mxCell id="3JQ_DlPpZyVaK5QD3R42-14" style="edgeStyle=orthogonalEdgeStyle;rounded=0;orthogonalLoop=1;jettySize=auto;html=1;entryX=0;entryY=0.5;entryDx=0;entryDy=0;" parent="1" source="3JQ_DlPpZyVaK5QD3R42-11" target="3JQ_DlPpZyVaK5QD3R42-15" edge="1">
          <mxGeometry relative="1" as="geometry">
            <mxPoint x="611" y="755" as="targetPoint" />
          </mxGeometry>
        </mxCell>
        <mxCell id="3JQ_DlPpZyVaK5QD3R42-11" value="进入资源施工环节" style="rounded=0;whiteSpace=wrap;html=1;" parent="1" vertex="1">
          <mxGeometry x="355" y="725" width="120" height="60" as="geometry" />
        </mxCell>
        <mxCell id="3JQ_DlPpZyVaK5QD3R42-13" style="edgeStyle=orthogonalEdgeStyle;rounded=0;orthogonalLoop=1;jettySize=auto;html=1;entryX=0;entryY=0.5;entryDx=0;entryDy=0;" parent="1" source="3JQ_DlPpZyVaK5QD3R42-12" target="3JQ_DlPpZyVaK5QD3R42-11" edge="1">
          <mxGeometry relative="1" as="geometry" />
        </mxCell>
        <mxCell id="3JQ_DlPpZyVaK5QD3R42-12" value="下发资源开通消息（MQ通知）" style="rounded=0;whiteSpace=wrap;html=1;" parent="1" vertex="1">
          <mxGeometry x="131" y="725" width="120" height="60" as="geometry" />
        </mxCell>
        <mxCell id="3JQ_DlPpZyVaK5QD3R42-19" style="edgeStyle=orthogonalEdgeStyle;rounded=0;orthogonalLoop=1;jettySize=auto;html=1;exitX=0.5;exitY=1;exitDx=0;exitDy=0;entryX=1;entryY=0.5;entryDx=0;entryDy=0;" parent="1" source="3JQ_DlPpZyVaK5QD3R42-15" target="3JQ_DlPpZyVaK5QD3R42-18" edge="1">
          <mxGeometry relative="1" as="geometry" />
        </mxCell>
        <mxCell id="3JQ_DlPpZyVaK5QD3R42-15" value="开通资源&lt;br&gt;（包含虚机、磁盘、弹性ip等）" style="rounded=0;whiteSpace=wrap;html=1;" parent="1" vertex="1">
          <mxGeometry x="576" y="725" width="110" height="60" as="geometry" />
        </mxCell>
        <mxCell id="3JQ_DlPpZyVaK5QD3R42-21" value="" style="edgeStyle=orthogonalEdgeStyle;rounded=0;orthogonalLoop=1;jettySize=auto;html=1;" parent="1" source="3JQ_DlPpZyVaK5QD3R42-18" target="3JQ_DlPpZyVaK5QD3R42-20" edge="1">
          <mxGeometry relative="1" as="geometry" />
        </mxCell>
        <mxCell id="3JQ_DlPpZyVaK5QD3R42-18" value="资源开通完成，回单开通资源的具体信息&lt;br&gt;给天翼云BCP系统（MQ通知）" style="rounded=0;whiteSpace=wrap;html=1;" parent="1" vertex="1">
          <mxGeometry x="355" y="825" width="120" height="60" as="geometry" />
        </mxCell>
        <mxCell id="3JQ_DlPpZyVaK5QD3R42-20" value="回填BCP系统具体资源信息" style="whiteSpace=wrap;html=1;rounded=0;" parent="1" vertex="1">
          <mxGeometry x="131" y="825" width="120" height="60" as="geometry" />
        </mxCell>
        <mxCell id="3JQ_DlPpZyVaK5QD3R42-22" value="&lt;b&gt;&lt;font style=&quot;font-size: 20px&quot;&gt;资源开通具体流程&lt;/font&gt;&lt;/b&gt;" style="text;html=1;strokeColor=none;fillColor=none;align=center;verticalAlign=middle;whiteSpace=wrap;rounded=0;" parent="1" vertex="1">
          <mxGeometry x="300" y="340" width="190" height="30" as="geometry" />
        </mxCell>
        <mxCell id="3JQ_DlPpZyVaK5QD3R42-43" style="edgeStyle=orthogonalEdgeStyle;rounded=0;orthogonalLoop=1;jettySize=auto;html=1;entryX=0;entryY=0.5;entryDx=0;entryDy=0;fontSize=20;" parent="1" source="3JQ_DlPpZyVaK5QD3R42-24" target="3JQ_DlPpZyVaK5QD3R42-26" edge="1">
          <mxGeometry relative="1" as="geometry" />
        </mxCell>
        <mxCell id="3JQ_DlPpZyVaK5QD3R42-24" value="资源到期，发送资源冻结消息通知&lt;br&gt;（MQ）" style="rounded=0;whiteSpace=wrap;html=1;" parent="1" vertex="1">
          <mxGeometry x="198" y="1341" width="120" height="60" as="geometry" />
        </mxCell>
        <mxCell id="3JQ_DlPpZyVaK5QD3R42-45" value="" style="edgeStyle=orthogonalEdgeStyle;rounded=0;orthogonalLoop=1;jettySize=auto;html=1;fontSize=20;" parent="1" source="3JQ_DlPpZyVaK5QD3R42-26" target="3JQ_DlPpZyVaK5QD3R42-44" edge="1">
          <mxGeometry relative="1" as="geometry" />
        </mxCell>
        <mxCell id="3JQ_DlPpZyVaK5QD3R42-26" value="调用资源冻结接口" style="rounded=0;whiteSpace=wrap;html=1;" parent="1" vertex="1">
          <mxGeometry x="422" y="1341" width="120" height="60" as="geometry" />
        </mxCell>
        <mxCell id="3JQ_DlPpZyVaK5QD3R42-27" value="" style="endArrow=none;dashed=1;html=1;rounded=0;" parent="1" edge="1">
          <mxGeometry width="50" height="50" relative="1" as="geometry">
            <mxPoint x="360" y="1990" as="sourcePoint" />
            <mxPoint x="361" y="1280" as="targetPoint" />
          </mxGeometry>
        </mxCell>
        <mxCell id="3JQ_DlPpZyVaK5QD3R42-28" value="" style="endArrow=none;dashed=1;html=1;rounded=0;" parent="1" edge="1">
          <mxGeometry width="50" height="50" relative="1" as="geometry">
            <mxPoint x="600" y="1990" as="sourcePoint" />
            <mxPoint x="601" y="1280" as="targetPoint" />
          </mxGeometry>
        </mxCell>
        <mxCell id="3JQ_DlPpZyVaK5QD3R42-29" value="" style="endArrow=none;dashed=1;html=1;rounded=0;" parent="1" edge="1">
          <mxGeometry width="50" height="50" relative="1" as="geometry">
            <mxPoint x="770" y="1990" as="sourcePoint" />
            <mxPoint x="771" y="1271" as="targetPoint" />
          </mxGeometry>
        </mxCell>
        <mxCell id="3JQ_DlPpZyVaK5QD3R42-30" value="天翼云BCP系统" style="text;html=1;strokeColor=#d79b00;fillColor=#ffe6cc;align=center;verticalAlign=middle;whiteSpace=wrap;rounded=0;" parent="1" vertex="1">
          <mxGeometry x="221" y="1280" width="60" height="30" as="geometry" />
        </mxCell>
        <mxCell id="3JQ_DlPpZyVaK5QD3R42-31" value="多云管理平台" style="text;html=1;strokeColor=#6c8ebf;fillColor=#dae8fc;align=center;verticalAlign=middle;whiteSpace=wrap;rounded=0;" parent="1" vertex="1">
          <mxGeometry x="461" y="1280" width="60" height="30" as="geometry" />
        </mxCell>
        <mxCell id="3JQ_DlPpZyVaK5QD3R42-32" value="ZSTACK" style="text;html=1;strokeColor=#82b366;fillColor=#d5e8d4;align=center;verticalAlign=middle;whiteSpace=wrap;rounded=0;" parent="1" vertex="1">
          <mxGeometry x="651" y="1280" width="60" height="30" as="geometry" />
        </mxCell>
        <mxCell id="3JQ_DlPpZyVaK5QD3R42-42" value="&lt;b&gt;&lt;font style=&quot;font-size: 20px&quot;&gt;资源回收具体流程&lt;/font&gt;&lt;/b&gt;" style="text;html=1;strokeColor=none;fillColor=none;align=center;verticalAlign=middle;whiteSpace=wrap;rounded=0;" parent="1" vertex="1">
          <mxGeometry x="391" y="1240" width="190" height="30" as="geometry" />
        </mxCell>
        <mxCell id="3JQ_DlPpZyVaK5QD3R42-48" style="edgeStyle=orthogonalEdgeStyle;rounded=0;orthogonalLoop=1;jettySize=auto;html=1;exitX=0.5;exitY=1;exitDx=0;exitDy=0;entryX=1;entryY=0.5;entryDx=0;entryDy=0;fontSize=20;" parent="1" source="3JQ_DlPpZyVaK5QD3R42-44" target="3JQ_DlPpZyVaK5QD3R42-49" edge="1">
          <mxGeometry relative="1" as="geometry">
            <mxPoint x="542" y="1490" as="targetPoint" />
          </mxGeometry>
        </mxCell>
        <mxCell id="3JQ_DlPpZyVaK5QD3R42-44" value="冻结虚机资源" style="whiteSpace=wrap;html=1;rounded=0;" parent="1" vertex="1">
          <mxGeometry x="622" y="1341" width="120" height="60" as="geometry" />
        </mxCell>
        <mxCell id="3JQ_DlPpZyVaK5QD3R42-51" value="" style="edgeStyle=orthogonalEdgeStyle;rounded=0;orthogonalLoop=1;jettySize=auto;html=1;fontSize=12;" parent="1" source="3JQ_DlPpZyVaK5QD3R42-49" target="3JQ_DlPpZyVaK5QD3R42-50" edge="1">
          <mxGeometry relative="1" as="geometry" />
        </mxCell>
        <mxCell id="3JQ_DlPpZyVaK5QD3R42-49" value="资源冻结成功，发送通知消息&lt;br&gt;（MQ）" style="rounded=0;whiteSpace=wrap;html=1;fontSize=12;" parent="1" vertex="1">
          <mxGeometry x="420" y="1460" width="120" height="60" as="geometry" />
        </mxCell>
        <mxCell id="3JQ_DlPpZyVaK5QD3R42-66" style="edgeStyle=orthogonalEdgeStyle;rounded=0;orthogonalLoop=1;jettySize=auto;html=1;entryX=0.5;entryY=0;entryDx=0;entryDy=0;fontSize=12;" parent="1" source="3JQ_DlPpZyVaK5QD3R42-50" target="3JQ_DlPpZyVaK5QD3R42-65" edge="1">
          <mxGeometry relative="1" as="geometry" />
        </mxCell>
        <mxCell id="3JQ_DlPpZyVaK5QD3R42-50" value="标记资源已冻结" style="whiteSpace=wrap;html=1;rounded=0;" parent="1" vertex="1">
          <mxGeometry x="198" y="1460" width="120" height="60" as="geometry" />
        </mxCell>
        <mxCell id="3JQ_DlPpZyVaK5QD3R42-54" value="" style="edgeStyle=orthogonalEdgeStyle;rounded=0;orthogonalLoop=1;jettySize=auto;html=1;fontSize=12;" parent="1" source="3JQ_DlPpZyVaK5QD3R42-52" target="3JQ_DlPpZyVaK5QD3R42-53" edge="1">
          <mxGeometry relative="1" as="geometry" />
        </mxCell>
        <mxCell id="3JQ_DlPpZyVaK5QD3R42-52" value="冻结期结束，用户未续订，发送消息通知回收资源（MQ）" style="rounded=0;whiteSpace=wrap;html=1;fontSize=12;" parent="1" vertex="1">
          <mxGeometry x="198" y="1590" width="120" height="60" as="geometry" />
        </mxCell>
        <mxCell id="3JQ_DlPpZyVaK5QD3R42-56" value="" style="edgeStyle=orthogonalEdgeStyle;rounded=0;orthogonalLoop=1;jettySize=auto;html=1;fontSize=12;" parent="1" source="3JQ_DlPpZyVaK5QD3R42-53" target="3JQ_DlPpZyVaK5QD3R42-55" edge="1">
          <mxGeometry relative="1" as="geometry" />
        </mxCell>
        <mxCell id="3JQ_DlPpZyVaK5QD3R42-53" value="调用删除资源接口&lt;br&gt;(删除通知的资源，BCP通知相关资源ID)" style="whiteSpace=wrap;html=1;rounded=0;" parent="1" vertex="1">
          <mxGeometry x="422" y="1590" width="120" height="60" as="geometry" />
        </mxCell>
        <mxCell id="3JQ_DlPpZyVaK5QD3R42-61" style="edgeStyle=orthogonalEdgeStyle;rounded=0;orthogonalLoop=1;jettySize=auto;html=1;exitX=0.5;exitY=1;exitDx=0;exitDy=0;entryX=1;entryY=0.5;entryDx=0;entryDy=0;fontSize=12;" parent="1" source="3JQ_DlPpZyVaK5QD3R42-55" target="3JQ_DlPpZyVaK5QD3R42-58" edge="1">
          <mxGeometry relative="1" as="geometry" />
        </mxCell>
        <mxCell id="3JQ_DlPpZyVaK5QD3R42-55" value="删除BCP通知的相关ID的资源" style="whiteSpace=wrap;html=1;rounded=0;" parent="1" vertex="1">
          <mxGeometry x="622" y="1590" width="120" height="60" as="geometry" />
        </mxCell>
        <mxCell id="3JQ_DlPpZyVaK5QD3R42-63" value="" style="edgeStyle=orthogonalEdgeStyle;rounded=0;orthogonalLoop=1;jettySize=auto;html=1;fontSize=12;" parent="1" source="3JQ_DlPpZyVaK5QD3R42-58" target="3JQ_DlPpZyVaK5QD3R42-62" edge="1">
          <mxGeometry relative="1" as="geometry" />
        </mxCell>
        <mxCell id="3JQ_DlPpZyVaK5QD3R42-58" value="资源回收成功，发送通知消息&lt;br&gt;（MQ）" style="whiteSpace=wrap;html=1;rounded=0;" parent="1" vertex="1">
          <mxGeometry x="422" y="1710" width="120" height="60" as="geometry" />
        </mxCell>
        <mxCell id="3JQ_DlPpZyVaK5QD3R42-62" value="标记资源回收成功，删除相应资源记录" style="whiteSpace=wrap;html=1;rounded=0;" parent="1" vertex="1">
          <mxGeometry x="198" y="1710" width="120" height="60" as="geometry" />
        </mxCell>
        <mxCell id="3JQ_DlPpZyVaK5QD3R42-67" style="edgeStyle=orthogonalEdgeStyle;rounded=0;orthogonalLoop=1;jettySize=auto;html=1;entryX=0;entryY=0.5;entryDx=0;entryDy=0;fontSize=12;" parent="1" source="3JQ_DlPpZyVaK5QD3R42-65" target="3JQ_DlPpZyVaK5QD3R42-52" edge="1">
          <mxGeometry relative="1" as="geometry" />
        </mxCell>
        <mxCell id="3JQ_DlPpZyVaK5QD3R42-68" value="否" style="edgeLabel;html=1;align=center;verticalAlign=middle;resizable=0;points=[];fontSize=12;" parent="3JQ_DlPpZyVaK5QD3R42-67" vertex="1" connectable="0">
          <mxGeometry x="-0.4291" y="-1" relative="1" as="geometry">
            <mxPoint as="offset" />
          </mxGeometry>
        </mxCell>
        <mxCell id="3JQ_DlPpZyVaK5QD3R42-69" value="是" style="edgeStyle=orthogonalEdgeStyle;rounded=0;orthogonalLoop=1;jettySize=auto;html=1;fontSize=12;entryX=0;entryY=0.5;entryDx=0;entryDy=0;exitX=0.5;exitY=1;exitDx=0;exitDy=0;" parent="1" source="3JQ_DlPpZyVaK5QD3R42-65" target="3JQ_DlPpZyVaK5QD3R42-70" edge="1">
          <mxGeometry relative="1" as="geometry">
            <mxPoint x="100" y="1770" as="targetPoint" />
            <Array as="points">
              <mxPoint x="113" y="1830" />
            </Array>
          </mxGeometry>
        </mxCell>
        <mxCell id="3JQ_DlPpZyVaK5QD3R42-65" value="是否续订" style="rhombus;whiteSpace=wrap;html=1;fontSize=12;" parent="1" vertex="1">
          <mxGeometry x="78" y="1580" width="70" height="80" as="geometry" />
        </mxCell>
        <mxCell id="3JQ_DlPpZyVaK5QD3R42-73" style="edgeStyle=orthogonalEdgeStyle;rounded=0;orthogonalLoop=1;jettySize=auto;html=1;entryX=0;entryY=0.5;entryDx=0;entryDy=0;fontSize=12;" parent="1" source="3JQ_DlPpZyVaK5QD3R42-70" target="3JQ_DlPpZyVaK5QD3R42-72" edge="1">
          <mxGeometry relative="1" as="geometry" />
        </mxCell>
        <mxCell id="3JQ_DlPpZyVaK5QD3R42-70" value="发起解除冻结流程" style="rounded=0;whiteSpace=wrap;html=1;fontSize=12;" parent="1" vertex="1">
          <mxGeometry x="198" y="1800" width="120" height="60" as="geometry" />
        </mxCell>
        <mxCell id="3JQ_DlPpZyVaK5QD3R42-74" style="edgeStyle=orthogonalEdgeStyle;rounded=0;orthogonalLoop=1;jettySize=auto;html=1;fontSize=12;entryX=0;entryY=0.5;entryDx=0;entryDy=0;" parent="1" source="3JQ_DlPpZyVaK5QD3R42-72" target="3JQ_DlPpZyVaK5QD3R42-75" edge="1">
          <mxGeometry relative="1" as="geometry">
            <mxPoint x="410" y="1830" as="targetPoint" />
          </mxGeometry>
        </mxCell>
        <mxCell id="3JQ_DlPpZyVaK5QD3R42-72" value="恢复虚机至正常状态" style="rounded=0;whiteSpace=wrap;html=1;fontSize=12;" parent="1" vertex="1">
          <mxGeometry x="426" y="1800" width="120" height="60" as="geometry" />
        </mxCell>
        <mxCell id="3JQ_DlPpZyVaK5QD3R42-78" style="edgeStyle=orthogonalEdgeStyle;rounded=0;orthogonalLoop=1;jettySize=auto;html=1;exitX=0.5;exitY=1;exitDx=0;exitDy=0;entryX=1;entryY=0.5;entryDx=0;entryDy=0;fontSize=12;" parent="1" source="3JQ_DlPpZyVaK5QD3R42-75" target="3JQ_DlPpZyVaK5QD3R42-76" edge="1">
          <mxGeometry relative="1" as="geometry" />
        </mxCell>
        <mxCell id="3JQ_DlPpZyVaK5QD3R42-75" value="唤醒虚机至正常状态" style="rounded=0;whiteSpace=wrap;html=1;fontSize=12;" parent="1" vertex="1">
          <mxGeometry x="630" y="1800" width="120" height="60" as="geometry" />
        </mxCell>
        <mxCell id="3JQ_DlPpZyVaK5QD3R42-81" value="" style="edgeStyle=orthogonalEdgeStyle;rounded=0;orthogonalLoop=1;jettySize=auto;html=1;fontSize=12;" parent="1" source="3JQ_DlPpZyVaK5QD3R42-76" target="3JQ_DlPpZyVaK5QD3R42-80" edge="1">
          <mxGeometry relative="1" as="geometry" />
        </mxCell>
        <mxCell id="3JQ_DlPpZyVaK5QD3R42-76" value="唤醒成功，回单给BCP系统&lt;br&gt;（MQ）" style="rounded=0;whiteSpace=wrap;html=1;fontSize=12;" parent="1" vertex="1">
          <mxGeometry x="422" y="1890" width="120" height="60" as="geometry" />
        </mxCell>
        <mxCell id="3JQ_DlPpZyVaK5QD3R42-106" style="edgeStyle=orthogonalEdgeStyle;rounded=0;orthogonalLoop=1;jettySize=auto;html=1;exitX=0.5;exitY=1;exitDx=0;exitDy=0;entryX=0;entryY=0.5;entryDx=0;entryDy=0;fontSize=12;fillColor=#33001A;" parent="1" source="3JQ_DlPpZyVaK5QD3R42-80" target="3JQ_DlPpZyVaK5QD3R42-104" edge="1">
          <mxGeometry relative="1" as="geometry" />
        </mxCell>
        <mxCell id="3JQ_DlPpZyVaK5QD3R42-80" value="解除冻结，更新虚机到期时间" style="whiteSpace=wrap;html=1;rounded=0;" parent="1" vertex="1">
          <mxGeometry x="198" y="1890" width="120" height="60" as="geometry" />
        </mxCell>
        <mxCell id="3JQ_DlPpZyVaK5QD3R42-84" style="edgeStyle=orthogonalEdgeStyle;rounded=0;orthogonalLoop=1;jettySize=auto;html=1;" parent="1" source="3JQ_DlPpZyVaK5QD3R42-85" edge="1">
          <mxGeometry relative="1" as="geometry">
            <mxPoint x="187" y="2674" as="targetPoint" />
          </mxGeometry>
        </mxCell>
        <mxCell id="3JQ_DlPpZyVaK5QD3R42-85" value="接收资源订单，计算计费信息，等待资源开通" style="rounded=0;whiteSpace=wrap;html=1;" parent="1" vertex="1">
          <mxGeometry x="127" y="2564" width="120" height="60" as="geometry" />
        </mxCell>
        <mxCell id="3JQ_DlPpZyVaK5QD3R42-86" style="edgeStyle=orthogonalEdgeStyle;rounded=0;orthogonalLoop=1;jettySize=auto;html=1;entryX=1;entryY=0.5;entryDx=0;entryDy=0;" parent="1" source="3JQ_DlPpZyVaK5QD3R42-87" target="3JQ_DlPpZyVaK5QD3R42-85" edge="1">
          <mxGeometry relative="1" as="geometry" />
        </mxCell>
        <mxCell id="3JQ_DlPpZyVaK5QD3R42-87" value="提交资源变更订单" style="rounded=0;whiteSpace=wrap;html=1;" parent="1" vertex="1">
          <mxGeometry x="351" y="2564" width="120" height="60" as="geometry" />
        </mxCell>
        <mxCell id="3JQ_DlPpZyVaK5QD3R42-88" value="" style="endArrow=none;dashed=1;html=1;rounded=0;" parent="1" edge="1">
          <mxGeometry width="50" height="50" relative="1" as="geometry">
            <mxPoint x="290" y="2923" as="sourcePoint" />
            <mxPoint x="290" y="2503" as="targetPoint" />
          </mxGeometry>
        </mxCell>
        <mxCell id="3JQ_DlPpZyVaK5QD3R42-89" value="" style="endArrow=none;dashed=1;html=1;rounded=0;" parent="1" edge="1">
          <mxGeometry width="50" height="50" relative="1" as="geometry">
            <mxPoint x="530" y="2923" as="sourcePoint" />
            <mxPoint x="530" y="2503" as="targetPoint" />
          </mxGeometry>
        </mxCell>
        <mxCell id="3JQ_DlPpZyVaK5QD3R42-90" value="" style="endArrow=none;dashed=1;html=1;rounded=0;" parent="1" edge="1">
          <mxGeometry width="50" height="50" relative="1" as="geometry">
            <mxPoint x="700" y="2914" as="sourcePoint" />
            <mxPoint x="700" y="2494" as="targetPoint" />
          </mxGeometry>
        </mxCell>
        <mxCell id="3JQ_DlPpZyVaK5QD3R42-91" value="天翼云BCP系统" style="text;html=1;strokeColor=#d79b00;fillColor=#ffe6cc;align=center;verticalAlign=middle;whiteSpace=wrap;rounded=0;" parent="1" vertex="1">
          <mxGeometry x="150" y="2503" width="60" height="30" as="geometry" />
        </mxCell>
        <mxCell id="3JQ_DlPpZyVaK5QD3R42-92" value="多云管理平台" style="text;html=1;strokeColor=#6c8ebf;fillColor=#dae8fc;align=center;verticalAlign=middle;whiteSpace=wrap;rounded=0;" parent="1" vertex="1">
          <mxGeometry x="390" y="2503" width="60" height="30" as="geometry" />
        </mxCell>
        <mxCell id="3JQ_DlPpZyVaK5QD3R42-93" value="ZSTACK" style="text;html=1;strokeColor=#82b366;fillColor=#d5e8d4;align=center;verticalAlign=middle;whiteSpace=wrap;rounded=0;" parent="1" vertex="1">
          <mxGeometry x="580" y="2503" width="60" height="30" as="geometry" />
        </mxCell>
        <mxCell id="3JQ_DlPpZyVaK5QD3R42-94" style="edgeStyle=orthogonalEdgeStyle;rounded=0;orthogonalLoop=1;jettySize=auto;html=1;entryX=0;entryY=0.5;entryDx=0;entryDy=0;" parent="1" source="3JQ_DlPpZyVaK5QD3R42-95" target="3JQ_DlPpZyVaK5QD3R42-99" edge="1">
          <mxGeometry relative="1" as="geometry">
            <mxPoint x="607" y="2704" as="targetPoint" />
          </mxGeometry>
        </mxCell>
        <mxCell id="3JQ_DlPpZyVaK5QD3R42-95" value="进入资源变更施工环节" style="rounded=0;whiteSpace=wrap;html=1;" parent="1" vertex="1">
          <mxGeometry x="351" y="2674" width="120" height="60" as="geometry" />
        </mxCell>
        <mxCell id="3JQ_DlPpZyVaK5QD3R42-96" style="edgeStyle=orthogonalEdgeStyle;rounded=0;orthogonalLoop=1;jettySize=auto;html=1;entryX=0;entryY=0.5;entryDx=0;entryDy=0;" parent="1" source="3JQ_DlPpZyVaK5QD3R42-97" target="3JQ_DlPpZyVaK5QD3R42-95" edge="1">
          <mxGeometry relative="1" as="geometry" />
        </mxCell>
        <mxCell id="3JQ_DlPpZyVaK5QD3R42-97" value="下发资源变更消息（MQ通知）" style="rounded=0;whiteSpace=wrap;html=1;" parent="1" vertex="1">
          <mxGeometry x="127" y="2674" width="120" height="60" as="geometry" />
        </mxCell>
        <mxCell id="3JQ_DlPpZyVaK5QD3R42-98" style="edgeStyle=orthogonalEdgeStyle;rounded=0;orthogonalLoop=1;jettySize=auto;html=1;exitX=0.5;exitY=1;exitDx=0;exitDy=0;entryX=1;entryY=0.5;entryDx=0;entryDy=0;" parent="1" source="3JQ_DlPpZyVaK5QD3R42-99" target="3JQ_DlPpZyVaK5QD3R42-101" edge="1">
          <mxGeometry relative="1" as="geometry" />
        </mxCell>
        <mxCell id="3JQ_DlPpZyVaK5QD3R42-99" value="变更资源规格" style="rounded=0;whiteSpace=wrap;html=1;" parent="1" vertex="1">
          <mxGeometry x="572" y="2674" width="110" height="60" as="geometry" />
        </mxCell>
        <mxCell id="3JQ_DlPpZyVaK5QD3R42-100" value="" style="edgeStyle=orthogonalEdgeStyle;rounded=0;orthogonalLoop=1;jettySize=auto;html=1;" parent="1" source="3JQ_DlPpZyVaK5QD3R42-101" target="3JQ_DlPpZyVaK5QD3R42-102" edge="1">
          <mxGeometry relative="1" as="geometry" />
        </mxCell>
        <mxCell id="3JQ_DlPpZyVaK5QD3R42-101" value="资源变更完成，回单变更后的资源具体信息给天翼云BCP系统（MQ通知）" style="rounded=0;whiteSpace=wrap;html=1;" parent="1" vertex="1">
          <mxGeometry x="351" y="2774" width="120" height="60" as="geometry" />
        </mxCell>
        <mxCell id="3JQ_DlPpZyVaK5QD3R42-102" value="回填BCP系统具体资源信息" style="whiteSpace=wrap;html=1;rounded=0;" parent="1" vertex="1">
          <mxGeometry x="127" y="2774" width="120" height="60" as="geometry" />
        </mxCell>
        <mxCell id="3JQ_DlPpZyVaK5QD3R42-103" value="&lt;b&gt;&lt;font style=&quot;font-size: 20px&quot;&gt;资源变更具体流程&lt;/font&gt;&lt;/b&gt;" style="text;html=1;strokeColor=none;fillColor=none;align=center;verticalAlign=middle;whiteSpace=wrap;rounded=0;" parent="1" vertex="1">
          <mxGeometry x="320" y="2463" width="190" height="30" as="geometry" />
        </mxCell>
        <mxCell id="3JQ_DlPpZyVaK5QD3R42-104" value="回写到期时间到多云管，界面显示到期时间" style="whiteSpace=wrap;html=1;rounded=0;" parent="1" vertex="1">
          <mxGeometry x="426" y="1990" width="124" height="60" as="geometry" />
        </mxCell>
      </root>
    </mxGraphModel>
  </diagram>
</mxfile>
